<?xml version="1.0" standalone="no"?>
<!DOCTYPE svg PUBLIC "-//W3C//DTD SVG 20010904//EN"
 "http://www.w3.org/TR/2001/REC-SVG-20010904/DTD/svg10.dtd">
<svg version="1.0" xmlns="http://www.w3.org/2000/svg"
 width="1024.000000pt" height="1024.000000pt" viewBox="0 0 1024.000000 1024.000000"
 preserveAspectRatio="xMidYMid meet">

<g transform="translate(0.000000,1024.000000) scale(0.100000,-0.100000)"
fill="#000000" stroke="none">
<path d="M0 5120 l0 -5120 5120 0 5120 0 0 5120 0 5120 -5120 0 -5120 0 0
-5120z m6525 3615 l25 -24 0 -2381 0 -2380 95 0 95 0 2 93 c4 186 -3 430 -12
448 -15 28 -12 80 7 101 11 13 30 18 64 18 27 0 51 5 56 13 4 6 8 58 9 115 l1
103 35 37 c24 25 42 57 53 97 9 33 24 73 32 89 17 33 24 88 17 132 -5 26 -16
36 -90 72 -103 51 -165 106 -193 173 -24 55 -22 64 13 73 57 14 155 82 229
157 73 76 154 128 176 115 4 -3 11 22 14 55 4 33 9 70 13 83 5 22 -3 28 -85
71 -60 31 -101 60 -121 85 -28 36 -57 97 -49 104 2 2 25 15 51 30 26 15 88 68
136 116 75 76 95 90 130 96 38 6 43 10 51 43 5 20 12 59 15 87 l6 51 -62 23
c-78 28 -138 84 -138 128 0 22 9 38 38 62 20 17 63 57 94 87 43 43 64 56 86
56 29 0 29 2 41 76 16 106 15 121 -8 121 -24 0 -91 74 -91 101 0 12 26 46 63
82 61 60 64 65 76 133 14 79 31 102 93 128 l36 16 -5 72 c-4 65 -2 77 19 108
39 58 72 51 109 -22 16 -31 18 -45 9 -80 -17 -75 -14 -84 30 -97 53 -16 77
-55 86 -138 5 -47 11 -66 23 -70 35 -10 61 -30 100 -78 23 -27 41 -53 41 -57
0 -19 -65 -78 -97 -88 l-35 -12 6 -57 c15 -131 18 -142 33 -137 25 10 78 -20
113 -63 18 -24 57 -60 86 -81 52 -39 52 -39 41 -75 -12 -41 -62 -85 -130 -115
-65 -29 -68 -36 -56 -111 6 -35 12 -70 12 -76 0 -7 9 -13 19 -13 40 0 91 -32
156 -98 37 -39 95 -88 130 -111 34 -23 62 -47 62 -54 0 -7 -13 -33 -29 -58
-30 -48 -107 -105 -186 -139 l-46 -20 2 -80 c3 -70 5 -80 21 -80 42 0 95 -35
186 -123 100 -95 176 -150 225 -163 25 -6 27 -9 21 -38 -16 -76 -90 -148 -217
-212 l-67 -34 2 -303 3 -302 58 -5 c42 -4 63 -11 73 -25 18 -25 18 -66 -1 -91
-12 -16 -14 -67 -15 -286 l0 -267 93 -3 92 -3 0 -210 0 -211 -118 -207 c-226
-397 -378 -599 -656 -877 -467 -467 -1038 -790 -1666 -944 -55 -13 -118 -27
-140 -32 -22 -4 -47 -9 -55 -11 -42 -11 -354 -50 -409 -52 -36 -1 -68 -4 -72
-7 -15 -9 -465 -5 -586 5 -301 26 -585 84 -873 181 -271 90 -510 203 -745 350
-429 270 -676 495 -977 890 -158 208 -257 363 -372 583 l-67 127 310 0 c175 0
311 4 311 9 0 5 -7 44 -15 87 -69 372 -103 1117 -75 1654 8 165 39 464 60 575
5 28 12 67 15 88 3 20 8 53 11 73 12 75 75 368 128 594 61 259 84 370 79 370
-5 0 -76 -80 -122 -139 -120 -154 -218 -319 -332 -559 l-78 -164 -11 39 c-18
58 -24 293 -10 382 16 102 53 201 105 286 49 80 167 198 238 240 26 15 46 29
44 31 -8 8 -153 -48 -262 -102 -183 -89 -359 -237 -515 -432 -77 -96 -86 -92
-76 32 10 115 30 195 72 278 121 242 302 378 587 442 l101 23 -110 26 c-272
66 -464 70 -692 17 -46 -11 -85 -20 -88 -20 -15 0 68 109 119 157 117 109 280
167 462 165 174 -2 294 -35 392 -108 17 -13 34 -24 37 -24 10 0 -84 142 -139
210 -117 146 -249 254 -405 332 -47 23 -69 39 -60 42 138 51 232 62 336 41
159 -33 301 -134 383 -272 43 -73 101 -232 101 -278 0 -41 17 -28 24 18 10 63
64 214 98 277 113 206 314 340 508 340 53 0 166 -16 182 -27 5 -2 -26 -27 -68
-55 -122 -81 -245 -202 -345 -336 -59 -79 -189 -308 -189 -332 0 -9 6 -6 15 7
9 12 55 48 103 80 153 102 313 135 483 99 135 -29 259 -118 313 -224 14 -28
26 -53 26 -56 0 -2 -21 3 -47 11 -67 21 -272 28 -373 14 -108 -16 -227 -51
-315 -93 l-70 -33 80 -7 c44 -3 102 -11 128 -17 269 -62 476 -394 416 -670
l-11 -50 -49 74 c-118 175 -272 316 -436 399 -49 24 -194 76 -214 76 -5 0 17
-26 49 -59 180 -182 234 -530 127 -812 -37 -96 -51 -104 -59 -32 -18 146 -100
411 -172 556 -65 128 -145 240 -158 219 -3 -6 -32 -159 -50 -267 -128 -783
-150 -1462 -65 -2085 44 -330 144 -717 270 -1055 l20 -55 265 0 264 0 0 668
c0 367 0 991 0 1386 0 804 3 919 32 948 16 16 38 18 258 18 l240 0 0 1085 0
1086 25 24 24 25 1256 0 1256 0 24 -25z"/>
<path d="M5777 8440 c-74 -13 -150 -55 -191 -105 -72 -87 -96 -179 -91 -340 8
-241 102 -361 308 -396 69 -12 92 -11 195 5 64 10 137 21 162 23 25 3 48 8 53
12 4 4 4 98 1 209 l-7 202 -164 0 -163 0 0 -65 0 -65 75 0 75 0 0 -94 0 -93
-46 -7 c-121 -16 -195 4 -252 69 -61 70 -82 166 -63 300 21 145 81 214 195
222 64 5 115 -19 136 -64 l15 -33 99 0 99 0 -7 33 c-27 139 -218 222 -429 187z"/>
<path d="M4260 8438 c0 -6 79 -269 132 -443 30 -99 68 -228 84 -287 l29 -108
70 0 c105 0 112 4 128 64 93 332 150 532 156 538 6 7 59 -169 132 -441 21 -79
41 -146 44 -149 3 -3 43 -8 88 -10 l83 -4 44 153 c24 85 78 271 121 414 44
143 79 264 79 268 0 4 -41 6 -92 5 l-91 -3 -28 -100 c-14 -55 -48 -181 -73
-280 -26 -99 -50 -189 -53 -200 -5 -15 -11 -2 -23 45 -10 36 -37 135 -60 220
-49 180 -58 216 -66 268 -3 20 -8 40 -11 45 -2 4 -42 7 -89 7 -80 0 -85 -1
-94 -24 -10 -28 -66 -235 -119 -446 l-37 -145 -22 90 c-12 50 -50 188 -84 308
l-61 217 -94 0 c-51 0 -93 -1 -93 -2z"/>
<path d="M4825 7311 c-45 -20 -91 -69 -112 -118 -24 -57 -28 -172 -8 -238 35
-122 150 -192 271 -165 129 29 187 117 185 283 -1 100 -26 164 -81 210 -58 49
-180 62 -255 28z m188 -111 c71 -84 47 -264 -39 -305 -40 -19 -58 -19 -94 0
-73 38 -74 282 -3 324 10 6 39 11 65 11 39 0 50 -4 71 -30z"/>
<path d="M4205 7058 c4 -139 8 -259 11 -266 3 -9 20 -12 55 -10 l52 3 -2 112
-2 111 74 7 c118 11 112 18 115 -118 l3 -117 49 0 50 0 0 265 0 265 -50 0 -50
0 0 -100 0 -100 -95 0 -95 0 0 100 0 100 -61 0 -60 0 6 -252z"/>
<path d="M5200 7265 l0 -45 63 0 64 0 6 -112 c4 -62 7 -162 7 -221 l0 -108 51
3 51 3 -1 224 -2 223 70 -7 71 -7 0 46 0 46 -190 0 -190 0 0 -45z"/>
<path d="M5640 7051 c0 -173 4 -262 11 -266 6 -4 75 -4 155 0 l144 7 0 44 0
44 -97 -2 -98 -3 0 70 0 70 83 3 82 3 0 39 0 40 -84 0 -83 0 -6 57 c-3 32 -4
60 -1 63 3 3 48 5 99 5 101 0 104 2 105 63 0 22 -1 22 -155 22 l-155 0 0 -259z"/>
<path d="M6052 7048 l3 -263 139 0 139 0 0 50 0 50 -87 3 -86 3 0 209 0 210
-55 0 -55 0 2 -262z"/>
<path d="M3928 6053 l-68 -4 0 -189 0 -190 173 0 172 0 4 195 3 195 -108 -2
c-60 -1 -139 -3 -176 -5z"/>
<path d="M4670 5865 l0 -185 158 0 c86 0 166 3 177 6 19 5 20 14 21 185 l2
179 -179 0 -179 0 0 -185z"/>
<path d="M5490 5860 l0 -180 180 0 180 0 0 180 0 180 -180 0 -180 0 0 -180z"/>
<path d="M4012 5313 l-152 -4 2 -187 3 -187 173 -3 172 -2 0 195 0 195 -22 -2
c-13 -1 -92 -4 -176 -5z"/>
<path d="M4670 5123 l0 -182 43 -6 c23 -3 103 -5 177 -3 l135 3 0 185 0 185
-178 0 -177 0 0 -182z"/>
<path d="M4433 4435 c-124 -38 -225 -139 -263 -263 -19 -62 -21 -96 -24 -439
l-4 -373 389 0 389 0 0 343 c0 371 -7 431 -54 525 -83 165 -276 257 -433 207z"/>
</g>
</svg>
